<svg
  xmlns="http://www.w3.org/2000/svg"
  width="26"
  height="24"
  viewBox="0 0 25 24"
><title>DevTo</title><path
    fill="#b7b4c7"
    d="M7.117 9.445c-.199-.156-.402-.234-.601-.234h-.907v5.598h.907c.199 0 .402-.079.601-.235.203-.156.305-.386.305-.699v-3.73c-.004-.313-.102-.547-.305-.7ZM21.832 0H3.168C1.914 0 .898 1.05.895 2.348v19.304C.898 22.95 1.915 24 3.168 24h18.664c1.254 0 2.27-1.05 2.273-2.348V2.348C24.102 1.05 23.085 0 21.832 0ZM8.882 13.887c0 1.008-.6 2.531-2.503 2.531H3.973V7.551H6.43c1.836 0 2.453 1.527 2.453 2.535Zm5.22-4.75H11.34v2.058h1.687v1.582H11.34v2.059h2.762v1.582h-3.223c-.578.016-1.059-.457-1.074-1.055V8.664c-.012-.598.445-1.094 1.023-1.11h3.274Zm5.367 6.175c-.684 1.649-1.91 1.32-2.457 0l-1.996-7.757h1.687l1.54 6.093 1.53-6.093h1.688Zm0 0"
  /></svg>
