<svg
  id="Layer_1"
  xmlns="http://www.w3.org/2000/svg"
  viewBox="0 0 400 200"
  role="img"
><title>ITV Hub Homepage</title><style
  >.st2{display:none;fill:#9a804f}</style><path
    class="st2"
    d="M134.9 179.5C121.2 192.1 98.1 200 76 200c-22.2 0-45.5-6.1-59.1-19.7C6.4 169.7.4 156.4.4 133.1V74.6c0-2.9 1-4.1 4.1-4.1h44c3.1 0 4.2 1.3 4.2 4.1v64.7c0 10.3 2.2 17.3 7 22.4 4.6 4.8 12.2 7.7 20.9 7.7 8.9 0 16.9-3 22.1-8.5 5.8-6.3 8.5-15.2 8.5-31.7V124c-.2 21.4 7.4 41.4 23.7 55.5zM26.5 52.5C10.1 52.5 0 40.9 0 26.3 0 11.6 10.1 0 26.5 0S53 11.6 53 26.3c-.1 14.6-10.2 26.2-26.5 26.2z"
  /><g id="Dynamic_Logo_2_"><path
      d="M395.9 75.7c-2.8-.9-10.5-3.2-14.3-4.4-6.3-1.9-8.7-2.5-10-2.5-2.6 0-4 1.4-4.9 4.4-8.9 29.6-22.5 62.9-34.5 83.6-4-7.6-11.3-20.7-18.1-32.5C303.6 106 293.2 87.5 288 79c-1.8-3-3-4.4-3.9-5.6-3.5-4.1-6.7-5.3-11.8-5.3-14.3 0-35.4 12.8-35.4 24.8 0 4.1 1.1 7.1 5.3 14.3l34 53.3c.5-.8.9-1.5 1.3-2.3-.4.8-.9 1.5-1.3 2.3 6.8 10.5 11.8 18.3 16.6 25.3 7.1 10.4 13.5 14.3 27.9 14.3 13.6 0 21.8-3.3 29.2-14.5 19.3-29.6 35.8-64.5 47.7-96.7 1.5-4 2.5-7 2.5-8.8-.1-2-1.3-3.5-4.2-4.4z"
      fill="#7b8386"
    /><path
      d="M26.5 52.5C10.1 52.5 0 40.9 0 26.3 0 11.6 10.1 0 26.5 0 42.8 0 53 11.6 53 26.3c0 14.6-10.2 26.2-26.5 26.2zm108.4 127C121.2 192.2 98.2 200 76 200c-22.2 0-45.5-6.1-59.1-19.7C6.4 169.7.4 156.4.4 133.1V74.6c0-2.9 1-4.1 4.1-4.1h44c3.1 0 4.2 1.3 4.2 4.1v64.7c0 10.3 2.2 17.3 7 22.4 4.6 4.8 12.2 7.7 20.9 7.7 8.9 0 16.9-3 22.1-8.5 5.8-6.3 8.5-15.2 8.5-31.7V124c-.2 21.4 7.4 41.4 23.7 55.5z"
      fill="#19bec8"
    /><path
      d="M242.2 107.1c4.8 8.2 7.2 14.8 7.2 23 0 20.3-15.2 38.7-44.5 38.7-13.9 0-24.6-3.9-31.6-11.1-6.7-6.9-9.9-16.1-9.9-31.5V100.4c4.9 2.1 10.9 3.2 18.1 3.2h23.2c3.1 0 4.2-1.3 4.2-4.1V74.6c0-2.8-1.1-4.1-4.2-4.1h-41.3V29.9c0-4.9-1.3-8.2-4-10.7-4-3.7-12.3-5.5-22.1-5.5-9.9 0-18.1 1.8-22.1 5.5-2.7 2.5-4 5.9-4 10.7V124c0 21.4 7.6 41.4 23.8 55.5 13.4 12.2 37.7 20.4 64.6 20.4 35.5 0 61.5-14.7 76.8-39.6l-34.2-53.2z"
      fill="#dfe1e2"
    /></g></svg>
